<mxfile host="app.diagrams.net" agent="Mozilla/5.0 (X11; Linux x86_64; rv:137.0) Gecko/20100101 Firefox/137.0" version="26.2.4">
  <diagram name="Page-1" id="OZbyIuNmOI4yqD_JnYF7">
    <mxGraphModel dx="1358" dy="828" grid="1" gridSize="10" guides="1" tooltips="1" connect="1" arrows="1" fold="1" page="1" pageScale="1" pageWidth="1169" pageHeight="827" math="0" shadow="0">
      <root>
        <mxCell id="0" />
        <mxCell id="1" parent="0" />
        <mxCell id="9nQN4FU83PdPPVJzCxF7-8" style="edgeStyle=orthogonalEdgeStyle;rounded=0;orthogonalLoop=1;jettySize=auto;html=1;exitX=1;exitY=0.5;exitDx=0;exitDy=0;" edge="1" parent="1" source="9nQN4FU83PdPPVJzCxF7-1" target="9nQN4FU83PdPPVJzCxF7-14">
          <mxGeometry relative="1" as="geometry">
            <mxPoint x="210" y="140" as="targetPoint" />
          </mxGeometry>
        </mxCell>
        <mxCell id="9nQN4FU83PdPPVJzCxF7-1" value="K체hlung f채llt aus" style="shape=hexagon;perimeter=hexagonPerimeter2;whiteSpace=wrap;html=1;fixedSize=1;fillColor=#d5e8d4;strokeColor=#82b366;" vertex="1" parent="1">
          <mxGeometry x="40" y="100" width="120" height="80" as="geometry" />
        </mxCell>
        <mxCell id="9nQN4FU83PdPPVJzCxF7-9" style="edgeStyle=orthogonalEdgeStyle;rounded=0;orthogonalLoop=1;jettySize=auto;html=1;exitX=1;exitY=0.5;exitDx=0;exitDy=0;" edge="1" parent="1" target="9nQN4FU83PdPPVJzCxF7-3">
          <mxGeometry relative="1" as="geometry">
            <mxPoint x="330" y="140" as="sourcePoint" />
          </mxGeometry>
        </mxCell>
        <mxCell id="9nQN4FU83PdPPVJzCxF7-16" style="edgeStyle=orthogonalEdgeStyle;rounded=0;orthogonalLoop=1;jettySize=auto;html=1;exitX=1;exitY=0.5;exitDx=0;exitDy=0;" edge="1" parent="1" source="9nQN4FU83PdPPVJzCxF7-3" target="9nQN4FU83PdPPVJzCxF7-15">
          <mxGeometry relative="1" as="geometry" />
        </mxCell>
        <mxCell id="9nQN4FU83PdPPVJzCxF7-3" value="Temperaturwerte steigen weiter an" style="shape=hexagon;perimeter=hexagonPerimeter2;whiteSpace=wrap;html=1;fixedSize=1;fillColor=#d5e8d4;strokeColor=#82b366;" vertex="1" parent="1">
          <mxGeometry x="370" y="100" width="120" height="80" as="geometry" />
        </mxCell>
        <mxCell id="9nQN4FU83PdPPVJzCxF7-12" style="edgeStyle=orthogonalEdgeStyle;rounded=0;orthogonalLoop=1;jettySize=auto;html=1;exitX=1;exitY=0.5;exitDx=0;exitDy=0;" edge="1" parent="1" source="9nQN4FU83PdPPVJzCxF7-5" target="9nQN4FU83PdPPVJzCxF7-6">
          <mxGeometry relative="1" as="geometry" />
        </mxCell>
        <mxCell id="9nQN4FU83PdPPVJzCxF7-5" value="Schwellwert erreicht" style="shape=hexagon;perimeter=hexagonPerimeter2;whiteSpace=wrap;html=1;fixedSize=1;fillColor=#d5e8d4;strokeColor=#82b366;" vertex="1" parent="1">
          <mxGeometry x="680" y="100" width="120" height="80" as="geometry" />
        </mxCell>
        <mxCell id="9nQN4FU83PdPPVJzCxF7-13" style="edgeStyle=orthogonalEdgeStyle;rounded=0;orthogonalLoop=1;jettySize=auto;html=1;exitX=1;exitY=0.5;exitDx=0;exitDy=0;" edge="1" parent="1" source="9nQN4FU83PdPPVJzCxF7-6" target="9nQN4FU83PdPPVJzCxF7-7">
          <mxGeometry relative="1" as="geometry" />
        </mxCell>
        <mxCell id="9nQN4FU83PdPPVJzCxF7-6" value="Monitoring sendet Benachrichtigungen" style="rounded=1;whiteSpace=wrap;html=1;fillColor=#ffe6cc;strokeColor=#d79b00;" vertex="1" parent="1">
          <mxGeometry x="830" y="110" width="120" height="60" as="geometry" />
        </mxCell>
        <mxCell id="9nQN4FU83PdPPVJzCxF7-7" value="Zust채ndige Person informiert" style="shape=hexagon;perimeter=hexagonPerimeter2;whiteSpace=wrap;html=1;fixedSize=1;fillColor=#d5e8d4;strokeColor=#82b366;" vertex="1" parent="1">
          <mxGeometry x="990" y="100" width="120" height="80" as="geometry" />
        </mxCell>
        <mxCell id="9nQN4FU83PdPPVJzCxF7-14" value="Temperaturwerte 체ber MetricQ erfassen" style="rounded=1;whiteSpace=wrap;html=1;fillColor=#ffe6cc;strokeColor=#d79b00;" vertex="1" parent="1">
          <mxGeometry x="220" y="110" width="120" height="60" as="geometry" />
        </mxCell>
        <mxCell id="9nQN4FU83PdPPVJzCxF7-17" style="edgeStyle=orthogonalEdgeStyle;rounded=0;orthogonalLoop=1;jettySize=auto;html=1;exitX=1;exitY=0.5;exitDx=0;exitDy=0;entryX=0;entryY=0.5;entryDx=0;entryDy=0;" edge="1" parent="1" source="9nQN4FU83PdPPVJzCxF7-15" target="9nQN4FU83PdPPVJzCxF7-5">
          <mxGeometry relative="1" as="geometry" />
        </mxCell>
        <mxCell id="9nQN4FU83PdPPVJzCxF7-15" value="Schwellwerte vergleichen" style="rounded=1;whiteSpace=wrap;html=1;fillColor=#ffe6cc;strokeColor=#d79b00;" vertex="1" parent="1">
          <mxGeometry x="524.5" y="110" width="120" height="60" as="geometry" />
        </mxCell>
      </root>
    </mxGraphModel>
  </diagram>
</mxfile>
